<?xml version="1.0" encoding="UTF-8" standalone="no"?>
<svg
   xmlns:dc="http://purl.org/dc/elements/1.1/"
   xmlns:cc="http://creativecommons.org/ns#"
   xmlns:rdf="http://www.w3.org/1999/02/22-rdf-syntax-ns#"
   xmlns:svg="http://www.w3.org/2000/svg"
   xmlns="http://www.w3.org/2000/svg"
   xmlns:sodipodi="http://sodipodi.sourceforge.net/DTD/sodipodi-0.dtd"
   xmlns:inkscape="http://www.inkscape.org/namespaces/inkscape"
   version="1.0"
   width="1701.000000pt"
   height="1882.000000pt"
   viewBox="0 0 1701.000000 1882.000000"
   preserveAspectRatio="xMidYMid meet"
   id="svg21720"
   sodipodi:docname="image.svg"
   inkscape:version="0.92.4 (33fec40, 2019-01-16)">
  <metadata
     id="metadata21726">
    <rdf:RDF>
      <cc:Work
         rdf:about="">
        <dc:format>image/svg+xml</dc:format>
        <dc:type
           rdf:resource="http://purl.org/dc/dcmitype/StillImage" />
        <dc:title></dc:title>
      </cc:Work>
    </rdf:RDF>
  </metadata>
  <defs
     id="defs21724" />
  <sodipodi:namedview
     pagecolor="#ffffff"
     bordercolor="#666666"
     borderopacity="1"
     objecttolerance="10"
     gridtolerance="10"
     guidetolerance="10"
     inkscape:pageopacity="0"
     inkscape:pageshadow="2"
     inkscape:window-width="2467"
     inkscape:window-height="1148"
     id="namedview21722"
     showgrid="true"
     inkscape:zoom="0.21206941"
     inkscape:cx="1887.194"
     inkscape:cy="1049.6703"
     inkscape:window-x="875"
     inkscape:window-y="538"
     inkscape:window-maximized="0"
     inkscape:current-layer="svg21720"
     inkscape:snap-page="true"
     inkscape:snap-grids="true"
     inkscape:snap-to-guides="true"
     showguides="false" />
  <path
     style="fill:#4d4d4d;stroke:none;stroke-width:0.45906228"
     d="m 130.39261,336.08588 c -17.28518,7.66868 -37.373356,27.9681 -43.913695,44.65874 -3.73733,9.02197 -5.138834,195.77674 -5.138834,599.05863 0,487.63735 0.934331,588.68335 6.540338,600.86295 7.474669,17.593 28.497181,36.9899 46.249521,43.3052 9.34333,3.6089 203.2176,4.9622 621.332,4.9622 583.49146,0 609.18556,-0.4511 624.60206,-8.5709 8.8762,-4.5109 22.4241,-15.7882 30.366,-24.8101 l 14.0149,-17.1419 1.4015,-510.1922 0.9344,-510.64328 -152.7636,147.50915 -153.2309,147.96027 -109.7841,31.5769 c -60.26454,17.59278 -136.87989,40.14772 -169.5816,50.07185 l -59.79733,17.59287 h -237.788 c -247.59842,0 -258.34326,-0.90217 -263.01493,-18.94611 -2.33584,-7.66864 2.33583,-27.96809 7.00751,-31.57691 0.93434,-0.45108 108.38272,-2.25549 239.65663,-3.60874 L 765.27242,895.89901 825.53697,760.56944 885.33426,625.23995 1038.0979,477.2797 1190.8614,329.7705 H 667.63455 c -426.52339,0.4511 -526.02994,1.3533 -537.24194,6.31538 z M 1305.3172,1150.7696 c 12.6136,12.1797 11.6793,24.8103 -2.8029,35.6367 -12.6135,9.4731 -13.5478,9.4731 -507.34322,9.4731 H 300.44136 l -11.67917,-11.2774 c -12.61351,-12.1798 -12.14635,-26.6149 1.86866,-37.4413 5.606,-4.0598 114.45589,-5.4131 506.40888,-5.4131 492.86107,0 498.93427,0 508.27747,9.022 z m -644.69012,243.593 c 12.14629,11.7287 11.67912,20.7506 -2.33591,33.8323 l -11.21198,11.2776 H 473.76024 300.44136 l -11.21201,-11.2776 c -14.01501,-13.0817 -14.48217,-22.1036 -2.33583,-33.8323 8.87617,-8.5709 15.41651,-9.0219 186.86672,-9.0219 171.4503,0 177.99061,0.451 186.86684,9.0219 z m 192.47272,-3.6087 c 14.01494,10.8263 14.48211,25.2615 1.86867,37.441 -10.27771,9.9243 -15.8837,11.2776 -44.84803,11.2776 -28.96433,0 -34.57038,-1.3533 -44.38086,-11.2776 -14.01504,-13.0817 -14.48221,-22.1036 -2.33583,-33.8323 7.94181,-7.6687 15.41654,-9.0219 45.78237,-9.0219 21.95684,0 39.24203,2.2555 43.91368,5.4132 z"
     id="path17424-3"
     inkscape:connector-curvature="0" />
  <path
     style="fill:#4d4d4d;stroke:none;stroke-width:0.45906228"
     d="m 1240.8567,344.90666 -270.95681,261.63704 80.81991,77.58895 80.3527,78.04004 270.9568,-261.63712 c 235.4522,-227.35355 270.9568,-263.44142 270.9568,-275.16998 0,-10.82637 -11.212,-23.90821 -66.8048,-77.58891 -55.593,-53.680709 -69.1408,-64.507075 -80.3528,-64.507075 -12.1464,0 -49.5196,34.283465 -284.9718,261.637055 z"
     id="path17422-6"
     inkscape:connector-curvature="0" />
  <path
     style="fill:#333333;stroke:none;stroke-width:0.45906228"
     d="m 912.73457,684.01327 c -5.60599,9.47302 -82.68855,186.75473 -82.68855,190.36347 0,4.0599 209.29068,-55.48508 215.83118,-61.80048 1.8686,-1.80434 -26.6286,-32.02798 -63.53476,-67.66472 -36.90623,-35.63683 -68.20638,-62.70274 -69.60787,-60.89827 z"
     id="path17468"
     inkscape:connector-curvature="0" />
</svg>
